# xmcd
#
# Track frame offsets:
#	150
#	13205
#	28465
#	49117
#	66092
#	82672
#	98707
#	116395
#	127477
#	140942
#
# Disc length: 2002 seconds
#
# Revision: 0
# Processed by: cddbd v1.4PL0 Copyright (c) Steve Scherf et al.
# Submitted via: audiograbber 1.81.02
#
DISCID=9007d00a
DTITLE=J. P. Pennington - Whatever It Takes
DYEAR=1991
DGENRE=Country
TTITLE0=When Love Comes Knockin´
TTITLE1=Talkin´ ´Bout A Heartache
TTITLE2=If I Were You
TTITLE3=Whatever It Takes
TTITLE4=Night Is Fallin´ (in my heart)
TTITLE5=You Gotta Get Serious
TTITLE6=Old Familiar Ring
TTITLE7=Blue Highway
TTITLE8=What I Wouldn´t Give
TTITLE9=Whatcha Tryin´To Do
EXTD=
EXTT0=good
EXTT1=
EXTT2=
EXTT3=
EXTT4=
EXTT5=
EXTT6=
EXTT7=
EXTT8=
EXTT9=
PLAYORDER=
